<?xml version="1.0" encoding="UTF-8" standalone="no"?>
<svg
   xmlns:dc="http://purl.org/dc/elements/1.1/"
   xmlns:cc="http://creativecommons.org/ns#"
   xmlns:rdf="http://www.w3.org/1999/02/22-rdf-syntax-ns#"
   xmlns:svg="http://www.w3.org/2000/svg"
   xmlns="http://www.w3.org/2000/svg"
   xmlns:sodipodi="http://sodipodi.sourceforge.net/DTD/sodipodi-0.dtd"
   xmlns:inkscape="http://www.inkscape.org/namespaces/inkscape"
   viewBox="0 0 381.06 72"
   version="1.1"
   id="svg62"
   sodipodi:docname="Rollins_ink_rgb.svg"
   inkscape:version="0.92.3 (2405546, 2018-03-11)">
  <metadata
     id="metadata66">
    <rdf:RDF>
      <cc:Work
         rdf:about="">
        <dc:format>image/svg+xml</dc:format>
        <dc:type
           rdf:resource="http://purl.org/dc/dcmitype/StillImage" />
        <dc:title>Rollins_rgb</dc:title>
      </cc:Work>
    </rdf:RDF>
  </metadata>
  <sodipodi:namedview
     pagecolor="#ffffff"
     bordercolor="#666666"
     borderopacity="1"
     objecttolerance="10"
     gridtolerance="10"
     guidetolerance="10"
     inkscape:pageopacity="0"
     inkscape:pageshadow="2"
     inkscape:window-width="1920"
     inkscape:window-height="1027"
     id="namedview64"
     showgrid="false"
     inkscape:zoom="0.75316224"
     inkscape:cx="25.226968"
     inkscape:cy="36"
     inkscape:window-x="1192"
     inkscape:window-y="-8"
     inkscape:window-maximized="1"
     inkscape:current-layer="svg62" />
  <defs
     id="defs4">
    <style
       id="style2">.a{fill:#002e5d;}.b{fill:gray;}.c{fill:#7ac143;}</style>
  </defs>
  <title
     id="title6">Rollins_rgb</title>
  <rect
     class="a"
     x="86.42"
     y="46.73"
     width="286.03"
     height="1.25"
     id="rect8" />
  <path
     class="b"
     d="M59.17,0c5-.22,9.73,3.23,9.73,10.31,0,12.52-19.2,26.2-20.89,27.52a1.41,1.41,0,0,1-1.47.11,3.13,3.13,0,0,1-1.27-1.24c-.42-.68,0-1.26.58-1.83C53.29,27.72,63.42,8,51.78,5.81c-1.2-.23-1.2-2.22.19-3.41C52.56,1.9,54.3.23,59.17,0"
     id="path10" />
  <path
     class="c"
     d="M.27,59.74c-.66-.88,0-1.39.87-1.72a70.6,70.6,0,0,0,7.61-3.14C12.42,23.56,39.84,8.12,42.85,6.06a5.34,5.34,0,0,1,1.68-.81,3.3,3.3,0,0,1,2,.36c.56.28.85,1-.38,2.5C31.6,25.23,28,44.77,28.05,44.7c-.12.27.6.1,10.14-5.49.86-.5,1.51-.15,1.77,1.26s.09,2-2.3,3.46c-7.7,4.65-10.79,5.78-10.82,6-.21,1.68-.94,9.86,4.36,12.91,10,5.7,21.38-11.17,22.08-12.18a2,2,0,0,1,2.17-.88c1.24.18,1.16,1,.88,1.51C48.52,66.26,34.43,72,24.87,72,14.39,72,9.84,65.21,9,58.87c-1.18.49-2.49,1-4.66,1.72a3.88,3.88,0,0,1-4-.85"
     id="path12" />
  <path
     class="c"
     d="M123.68,12.73c6.57,0,11.45,4.83,11.45,11.7s-4.88,11.69-11.45,11.69-11.45-4.82-11.45-11.69,4.92-11.7,11.45-11.7m-.05,20.56c4.39,0,7.56-3.45,7.56-8.86s-3.17-8.87-7.56-8.87-7.5,3.41-7.5,8.87,3.17,8.86,7.5,8.86"
     id="path14" />
  <polygon
     class="c"
     points="141.65 1.19 141.65 35.15 145.59 35.15 145.59 0.17 141.65 1.19"
     id="polygon16" />
  <polygon
     class="c"
     points="155.1 1.19 155.1 35.15 159.06 35.15 159.06 0.17 155.1 1.19"
     id="polygon18" />
  <path
     class="c"
     d="M181.9,35.15V13.7h3.85V18c2.59-3.26,5.7-4.91,8.92-4.91,4.83,0,7.55,3,7.55,8.76V35.15h-3.85V22.38c0-3.95-1.32-5.89-4.58-5.89-3.9,0-8,2.72-8,8.67v10Z"
     id="path20" />
  <path
     class="c"
     d="M217.57,33c2.39,0,3.9-1.27,3.9-3,0-2.19-1.56-2.78-4.1-3.85l-2-.82c-3.65-1.51-5.5-3-5.5-6.3,0-3.89,2.57-6.38,6.82-6.38a14.79,14.79,0,0,1,7.45,2.24l-.78,3.37c-2.48-1.8-4.67-2.68-6.58-2.68-2.09,0-3.36,1.17-3.36,2.78,0,2,1.27,2.58,4.29,3.75l1.7.68c4,1.56,5.84,3.46,5.84,6.68,0,4-2.91,6.67-7.69,6.67a13.6,13.6,0,0,1-8.18-2.78l.49-3.6c2.91,2.14,5.55,3.21,7.74,3.21"
     id="path22" />
  <path
     class="c"
     d="M288.38,33.05a14.37,14.37,0,0,1-8.78,3.07c-6.48,0-11.11-4.58-11.11-11,0-7.38,5.12-12.39,11.69-12.39,5.86,0,9.71,3.71,9.71,10.09,0,.3-.06.58-.06.92l-.43,1-17.15.59c.43,4.93,3.11,7.66,7.55,7.66,2.83,0,5.69-1.27,8.78-3.76ZM280,15.56c-3.7,0-6.87,2.78-7.5,7L286.32,22c-.14-4-2.72-6.48-6.33-6.48"
     id="path24" />
  <path
     class="c"
     d="M295.73,35.15V13.7h3.85V18c2.58-3.26,5.7-4.91,8.92-4.91,4.82,0,7.55,3,7.55,8.76V35.15h-3.84V22.38c0-3.95-1.33-5.89-4.59-5.89-3.9,0-8,2.72-8,8.67v10Z"
     id="path26" />
  <path
     class="c"
     d="M334.23,35.58h-5.45c-2.93-2-3-4.53-3-8.62V16.78h-4.47V13.7h4.47V7.07l4-1V13.7h6v3.08h-6v9.7c0,4.63.34,7,4.52,9.1"
     id="path28" />
  <path
     class="c"
     d="M359.72,33.05A14.38,14.38,0,0,1,351,36.12c-6.49,0-11.12-4.58-11.12-11,0-7.38,5.1-12.39,11.68-12.39,5.87,0,9.71,3.71,9.71,10.09,0,.3-.06.58-.06.92l-.43,1-17.15.59C344,30.23,346.7,33,351.14,33c2.84,0,5.7-1.27,8.77-3.76Zm-8.38-17.49c-3.7,0-6.87,2.78-7.52,7L357.68,22c-.15-4-2.73-6.48-6.34-6.48"
     id="path30" />
  <path
     class="c"
     d="M368.54,35.15V13.7h3.85V17A11.77,11.77,0,0,1,381.06,13v3.84c-6.43.49-8.58,2.59-8.58,7.9V35.15Z"
     id="path32" />
  <path
     class="c"
     d="M170.5.3a2.86,2.86,0,0,1,2.88,2.88A2.81,2.81,0,0,1,170.5,6a2.78,2.78,0,0,1-2.82-2.82A2.8,2.8,0,0,1,170.5.3m-1.95,34.86V13.72l3.95-1V35.16Z"
     id="path34" />
  <path
     class="c"
     d="M253.37,36.06a15.78,15.78,0,0,1-10.1-3.57A17.44,17.44,0,0,1,237,18.59c0-10.1,7.14-17.51,16.54-17.51a16.46,16.46,0,0,1,9.6,3.1l-.42,4.08a13.75,13.75,0,0,0-9.13-3.67c-7.27,0-12.64,5.85-12.64,14s5.23,13.85,12.51,13.85c3.56,0,6.76-1.38,10.05-4.17l-.33,4.59a16.4,16.4,0,0,1-9.77,3.2"
     id="path36" />
  <path
     class="c"
     d="M86.3,2.14h7c9.41,0,14,3.48,14,9.55,0,4.63-3.24,8.39-8.57,9.27l11.91,14h-4.91L94.27,21.47H90.14V35H86.3Zm7.19,16.32c6.58,0,9.91-2.41,9.91-6.68,0-4.67-3.57-6.44-10.57-6.44H90.14V18.46Z"
     id="path38" />
  <path
     class="a"
     d="M93.79,68.75H91.94a2.29,2.29,0,0,0-.35,0s0-.18,0-.35v-3a2.94,2.94,0,0,0,0-.35,2.29,2.29,0,0,0,.35,0h1.63c1.3,0,2.89,0,2.89,1.8,0,1.33-1.14,1.8-2.67,1.8m-1.85-9.08h1.93c1.47,0,2.33.23,2.33,1.56,0,.87-.54,1.65-2.27,1.65h-2a3.4,3.4,0,0,0-.35,0,3.4,3.4,0,0,0,0-.35V60a2.13,2.13,0,0,0,0-.35,2.51,2.51,0,0,0,.36,0m7,4.1s0-.05,0-.05a3,3,0,0,0,2.17-3.18c0-2.72-1.83-3.64-5.84-3.64h-9.6s-.06.17,0,.18h0a2.54,2.54,0,0,1,1,.27c.29.18.26.32.26.72V70.41c0,.4,0,.54-.26.72a2.54,2.54,0,0,1-1,.27h0c-.05,0,0,.18,0,.18h10c4.2,0,6-1.67,6-4.27a3.27,3.27,0,0,0-2.67-3.55"
     id="path40" />
  <path
     class="a"
     d="M119.48,56.9h-6.86c-.05,0,0,.18,0,.18h0c.34,0,.75,0,.68.48A38.15,38.15,0,0,1,110.59,62a1.23,1.23,0,0,0-.21.51,1.41,1.41,0,0,0-.23-.51c-1-1.46-2.66-3.83-2.71-4.41s.34-.49.68-.49h0s.07-.18,0-.18h-7.2s0,.17,0,.18h0a2,2,0,0,1,.84.19l.18.12a3.19,3.19,0,0,1,.65.79l5.08,7.52v4.71c0,.4,0,.54-.26.72a2.6,2.6,0,0,1-1,.27h0s0,.19,0,.19h7.82s.06-.17,0-.18h0a2.65,2.65,0,0,1-1-.27c-.28-.18-.26-.32-.26-.72V65.73L118,58.18a3.52,3.52,0,0,1,.69-.83l.19-.13a1.1,1.1,0,0,1,.55-.14h0s.06-.18,0-.18"
     id="path42" />
  <path
     class="a"
     d="M137.8,56.9h-7.36s-.05.17,0,.18h0a2,2,0,0,1,1,.27c.28.18.26.32.26.72v7.41a2.89,2.89,0,1,1-5.78,0V58.08c0-.4,0-.54.26-.72a2.19,2.19,0,0,1,1-.27h0s0-.18,0-.18h-6.94c-.06,0,0,.17,0,.18h0a.87.87,0,0,1,.58.16,1,1,0,0,1,.27.83v7.28c0,3.51,1.92,6.49,7.75,6.49s7.75-3,7.75-6.49V58.08c0-.4,0-.54.26-.72a2.6,2.6,0,0,1,1-.27h0s0-.18,0-.18"
     id="path44" />
  <polygon
     class="a"
     points="227.34 56.87 227.34 58.84 232.12 58.84 232.12 71.58 234.23 71.58 234.23 58.84 237.87 58.84 237.87 56.87 227.34 56.87"
     id="polygon46" />
  <polygon
     class="a"
     points="239.97 56.87 239.97 58.84 243.61 58.84 243.61 71.58 245.72 71.58 245.72 58.84 250.5 58.84 250.5 56.87 239.97 56.87"
     id="polygon48" />
  <path
     class="a"
     d="M219,69.86a5.38,5.38,0,0,1-5.37-5.63v0a5.35,5.35,0,1,1,10.69,0v0A5.34,5.34,0,0,1,219,69.86m0-13.23a7.48,7.48,0,0,0-7.52,7.6v0A7.35,7.35,0,0,0,219,71.83a7.49,7.49,0,0,0,7.52-7.6v0A7.36,7.36,0,0,0,219,56.63"
     id="path50" />
  <path
     class="a"
     d="M192.82,58.84H197c2.16,0,3.4.93,3.4,2.56v0c0,1.63-1.34,2.69-3.42,2.69h-4.12Zm9.65,2.54v0a4.16,4.16,0,0,0-1.17-3,5.85,5.85,0,0,0-4.22-1.5h-6.36V71.58h2.1V66.06h3.7l4.12,5.52h2.58l-4.43-5.89a4.33,4.33,0,0,0,3.68-4.31"
     id="path52" />
  <rect
     class="a"
     x="206.08"
     y="56.87"
     width="2.09"
     height="14.71"
     id="rect54" />
  <path
     class="a"
     d="M177.76,58.84h4.15c2.16,0,3.39.93,3.39,2.56v0c0,1.63-1.34,2.69-3.41,2.69h-4.13Zm9.66,2.54v0a4.16,4.16,0,0,0-1.17-3,5.87,5.87,0,0,0-4.22-1.5h-6.36V71.58h2.09V66.06h3.7l4.13,5.52h2.58l-4.44-5.89a4.33,4.33,0,0,0,3.69-4.31"
     id="path56" />
  <polygon
     class="a"
     points="154.25 56.87 149.19 64.5 144.14 56.87 142.14 56.87 142.14 71.58 144.19 71.58 144.19 60.62 149.17 67.98 154.15 60.6 154.15 71.58 156.24 71.58 156.24 56.87 154.25 56.87"
     id="polygon58" />
  <path
     class="a"
     d="M166,59.48l2.92,6.58H163Zm-.89-2.71-6.7,14.82h2.18L162.16,68h7.57l1.6,3.61h2.26l-6.7-14.82Z"
     id="path60" />
</svg>
